<svg id="Layer_1" data-name="Layer 1" xmlns="http://www.w3.org/2000/svg" viewBox="0 0 986.79 371.82"><defs><style>.cls-1{font-size:123.99px;font-family:LeagueGothic-Regular, League Gothic;letter-spacing:0.2em;}.cls-1,.cls-3,.cls-7{fill:#020202;}.cls-2{letter-spacing:0.2em;}.cls-3{font-size:79.35px;letter-spacing:0.03em;}.cls-3,.cls-7{font-family:ACaslonPro-SemiboldItalic, Adobe Caslon Pro;font-weight:700;font-style:italic;}.cls-4,.cls-5{fill:none;stroke:#231f20;stroke-miterlimit:10;}.cls-4{stroke-width:4.58px;}.cls-5{stroke-width:4.82px;}.cls-6{fill:#af0c0c;}.cls-7{font-size:49.59px;letter-spacing:0.03em;}</style></defs><title>oliver-heart-logo</title><text class="cls-1" transform="translate(124.6 161.03)">OLIVER H<tspan class="cls-2" x="494.57" y="0">E</tspan><tspan x="557.68" y="0">ART</tspan></text><text class="cls-3" transform="translate(304.04 247.45) scale(0.92 1)">Gift Baskets</text><polygon id="Shape_15" data-name="Shape 15" class="cls-4" points="971.1 42.62 894.7 42.62 894.7 15.3 92.43 15.3 92.43 42.62 16.02 42.62 16.02 329.42 92.43 329.42 92.43 356.73 894.7 356.73 894.7 329.42 971.1 329.42 971.1 42.62"/><polygon id="Shape_15-2" data-name="Shape 15" class="cls-5" points="984.38 31.77 905.82 31.77 905.82 2.41 80.97 2.41 80.97 31.77 2.41 31.77 2.41 340.05 80.97 340.05 80.97 369.41 905.82 369.41 905.82 340.05 984.38 340.05 984.38 31.77"/><path class="cls-6" d="M502,297.49c2.82-7.1,6.71-12.27,12.69-13.74,11.87-1.65,21.15,9.16,12.69,27.47-4.34,8.67-14.6,20.23-25.38,32.05h-.49c-10.78-11.82-21-23.38-25.38-32.05-8.46-18.32.82-29.12,12.69-27.47,6,1.47,9.87,6.64,12.69,13.74" transform="translate(-4.59 -8.59)"/><text class="cls-7" transform="translate(360.05 312.19) scale(0.92 1)">since</text><text class="cls-7" transform="translate(548.94 312.19) scale(0.92 1)">2014</text></svg>